<svg width="24" height="24" viewBox="0 0 24 24" fill="none" xmlns="http://www.w3.org/2000/svg">
<path d="M9.2499 8.00003H1.74993C0.78497 8.00003 0 7.21506 0 6.24991V1.74993C0 0.78497 0.78497 0 1.74993 0H9.2499C10.215 0 11 0.78497 11 1.74993V6.24991C11 7.21506 10.215 8.00003 9.2499 8.00003ZM1.74993 1.49999C1.61205 1.49999 1.49999 1.61205 1.49999 1.74993V6.24991C1.49999 6.38797 1.61205 6.50003 1.74993 6.50003H9.2499C9.38796 6.50003 9.50002 6.38797 9.50002 6.24991V1.74993C9.50002 1.61205 9.38796 1.49999 9.2499 1.49999H1.74993Z" fill="#DA774A"/>
<path d="M9.2499 24H1.74993C0.78497 24 0 23.215 0 22.2501V11.7501C0 10.785 0.78497 10 1.74993 10H9.2499C10.215 10 11 10.785 11 11.7501V22.2501C11 23.215 10.215 24 9.2499 24ZM1.74993 11.5C1.61205 11.5 1.49999 11.6121 1.49999 11.7501V22.2501C1.49999 22.3879 1.61205 22.5 1.74993 22.5H9.2499C9.38796 22.5 9.50002 22.3879 9.50002 22.2501V11.7501C9.50002 11.6121 9.38796 11.5 9.2499 11.5H1.74993Z" fill="#DA774A"/>
<path d="M22.253 24H14.753C13.7879 24 13.0029 23.2151 13.0029 22.2501V17.7501C13.0029 16.785 13.7879 16 14.753 16H22.253C23.218 16 24.0029 16.785 24.0029 17.7501V22.2501C24.0029 23.2151 23.218 24 22.253 24ZM14.753 17.5C14.615 17.5 14.5029 17.6121 14.5029 17.7501V22.2501C14.5029 22.388 14.615 22.5 14.753 22.5H22.253C22.3909 22.5 22.5029 22.388 22.5029 22.2501V17.7501C22.5029 17.6121 22.3909 17.5 22.253 17.5H14.753Z" fill="#DA774A"/>
<path d="M22.253 14H14.753C13.7879 14 13.0029 13.215 13.0029 12.2499V1.74993C13.0029 0.78497 13.7879 0 14.753 0H22.253C23.218 0 24.0029 0.78497 24.0029 1.74993V12.2499C24.0029 13.215 23.218 14 22.253 14ZM14.753 1.49999C14.615 1.49999 14.5029 1.61205 14.5029 1.74993V12.2499C14.5029 12.3879 14.615 12.5 14.753 12.5H22.253C22.3909 12.5 22.5029 12.3879 22.5029 12.2499V1.74993C22.5029 1.61205 22.3909 1.49999 22.253 1.49999H14.753Z" fill="#DA774A"/>
</svg>
