<svg width="26" height="28" viewBox="0 0 26 28" fill="none" xmlns="http://www.w3.org/2000/svg">
<path d="M14.8958 28C12.6555 28 10.8333 26.0377 10.8333 23.625C10.8333 23.527 10.8366 23.4302 10.842 23.3333H6.22917C5.18375 23.3333 4.33333 22.4175 4.33333 21.2917V18.074C2.33133 18.2163 0 16.5375 0 13.7083C0 11.2957 1.82217 9.33333 4.0625 9.33333C4.1535 9.33333 4.24342 9.33683 4.33333 9.34267V6.70833C4.33333 5.5825 5.18375 4.66667 6.22917 4.66667H10.8409C10.816 4.2595 10.8442 3.8395 10.9276 3.41833C11.1605 2.2365 12.2882 0 14.8958 0C17.1362 0 18.9583 1.96233 18.9583 4.375C18.9583 4.473 18.9551 4.56983 18.9497 4.66667H24.1042C25.1496 4.66667 26 5.5825 26 6.70833V10.4183C26 10.7077 25.8678 10.9772 25.6468 11.1405C25.4258 11.3038 25.1453 11.34 24.8939 11.235C24.6534 11.1335 24.388 11.0833 24.1042 11.0833C22.7598 11.0833 21.6667 12.2605 21.6667 13.7083C21.6667 15.1562 22.7598 16.3333 24.1042 16.3333C24.388 16.3333 24.6534 16.2832 24.8939 16.1828C25.1453 16.0778 25.4269 16.1128 25.6468 16.2773C25.8678 16.4395 26 16.709 26 16.9983V21.2917C26 22.4175 25.1496 23.3333 24.1042 23.3333H18.9508C18.9757 23.7405 18.9475 24.1605 18.8641 24.5817C18.6312 25.7635 17.5034 28 14.8958 28ZM5.14583 16.1233C5.30725 16.1233 5.46758 16.1747 5.60517 16.2762C5.82617 16.4395 5.95833 16.709 5.95833 16.9983V21.2917C5.95833 21.4527 6.07967 21.5833 6.22917 21.5833H11.8408C12.1095 21.5833 12.3597 21.7257 12.5114 21.9637C12.6631 22.2017 12.6956 22.505 12.5992 22.7745C12.506 23.0335 12.4594 23.3193 12.4594 23.625C12.4594 25.0728 13.5525 26.25 14.8969 26.25C16.8534 26.25 17.2716 24.2387 17.2748 24.2188C17.3745 23.7113 17.3463 23.198 17.1936 22.7745C17.0972 22.505 17.1286 22.2017 17.2813 21.9637C17.433 21.7257 17.6833 21.5833 17.9519 21.5833H24.1052C24.2548 21.5833 24.3761 21.4527 24.3761 21.2917V18.074C24.2862 18.0798 24.1963 18.0833 24.1052 18.0833C21.8649 18.0833 20.0427 16.121 20.0427 13.7083C20.0427 11.2957 21.8638 9.33333 24.1042 9.33333C24.1952 9.33333 24.2851 9.33683 24.375 9.34267V6.70833C24.375 6.54733 24.2537 6.41667 24.1042 6.41667H17.9508C17.6822 6.41667 17.4319 6.27433 17.2803 6.03633C17.1286 5.79833 17.0961 5.495 17.1925 5.2255C17.2868 4.9665 17.3333 4.68067 17.3333 4.375C17.3333 2.92717 16.2403 1.75 14.8958 1.75C12.9393 1.75 12.5212 3.76133 12.5179 3.78117C12.4183 4.28867 12.4464 4.802 12.5992 5.2255C12.6956 5.495 12.6642 5.79833 12.5114 6.03633C12.3597 6.27433 12.1095 6.41667 11.8408 6.41667H6.22917C6.07967 6.41667 5.95833 6.54733 5.95833 6.70833V10.4183C5.95833 10.7077 5.82617 10.9772 5.60517 11.1405C5.38417 11.3038 5.10358 11.34 4.85225 11.2338C4.61175 11.1335 4.34633 11.0833 4.0625 11.0833C2.71808 11.0833 1.625 12.2605 1.625 13.7083C1.625 15.351 2.86433 16.3333 4.0625 16.3333C4.34633 16.3333 4.61175 16.2832 4.85225 16.1828C4.94758 16.142 5.04725 16.1233 5.14583 16.1233Z" fill="#DA774A"/>
</svg>
