<svg width="24" height="22" viewBox="0 0 24 22" fill="none" xmlns="http://www.w3.org/2000/svg">
<path d="M23.25 5H0.75C0.336 5 0 4.664 0 4.25C0 3.836 0.336 3.5 0.75 3.5H23.25C23.664 3.5 24 3.836 24 4.25C24 4.664 23.664 5 23.25 5Z" fill="#DA774A"/>
<path d="M20.5601 13C18.6631 13 17.1201 11.457 17.1201 9.56V4.25C17.1201 3.836 17.4561 3.5 17.8701 3.5H23.2511C23.6641 3.5 24.0001 3.836 24.0001 4.25V9.56C24.0001 11.457 22.4571 13 20.5601 13ZM18.6191 5V9.56C18.6191 10.63 19.4891 11.5 20.5591 11.5C21.6291 11.5 22.4991 10.629 22.4991 9.56V5H18.6191Z" fill="#DA774A"/>
<path d="M14.935 13C12.904 13 11.25 11.347 11.25 9.315V4.25C11.25 3.836 11.586 3.5 12 3.5H17.869C18.283 3.5 18.619 3.836 18.619 4.25V9.315C18.619 11.347 16.966 13 14.935 13ZM12.75 5V9.315C12.75 10.52 13.73 11.5 14.935 11.5C16.14 11.5 17.12 10.52 17.12 9.315V5H12.75Z" fill="#DA774A"/>
<path d="M9.06488 13C7.03388 13 5.37988 11.347 5.37988 9.315V4.25C5.37988 3.836 5.71588 3.5 6.12988 3.5H11.9999C12.4139 3.5 12.7499 3.836 12.7499 4.25V9.315C12.7499 11.347 11.0969 13 9.06488 13ZM6.88088 5V9.315C6.88088 10.52 7.86088 11.5 9.06588 11.5C10.2709 11.5 11.2509 10.52 11.2509 9.315V5H6.88088Z" fill="#DA774A"/>
<path d="M3.44 13C1.543 13 0 11.457 0 9.56V4.25C0 3.836 0.336 3.5 0.75 3.5H6.131C6.545 3.5 6.881 3.836 6.881 4.25V9.56C6.881 11.457 5.338 13 3.44 13ZM1.5 5V9.56C1.5 10.63 2.37 11.5 3.44 11.5C4.51 11.5 5.38 10.629 5.38 9.56V5H1.5Z" fill="#DA774A"/>
<path d="M21.25 22H2.75C1.233 22 0 20.767 0 19.25V14.75C0 14.336 0.336 14 0.75 14C1.164 14 1.5 14.336 1.5 14.75V19.25C1.5 19.939 2.061 20.5 2.75 20.5H21.25C21.939 20.5 22.5 19.939 22.5 19.25V14.75C22.5 14.336 22.836 14 23.25 14C23.664 14 24 14.335 24 14.75V19.25C24 20.767 22.767 22 21.25 22Z" fill="#DA774A"/>
<path d="M0.75 6.25C0.336 6.25 0 5.915 0 5.5V2.75C0 1.233 1.233 0 2.75 0H21.25C22.767 0 24 1.233 24 2.75V4.417C24 4.831 23.664 5.167 23.25 5.167C22.836 5.167 22.5 4.831 22.5 4.417V2.75C22.5 2.061 21.939 1.5 21.25 1.5H2.75C2.061 1.5 1.5 2.061 1.5 2.75V5.5C1.5 5.915 1.164 6.25 0.75 6.25Z" fill="#DA774A"/>
</svg>
