<svg width="24" height="26" viewBox="0 0 24 26" fill="none" xmlns="http://www.w3.org/2000/svg">
<path d="M20.8521 20.5833H8.39359C6.75014 20.5833 5.41455 19.2477 5.41455 17.6042V2.97923C5.41455 1.33579 6.75014 0 8.39359 0H17.6106C18.68 0 19.7275 0.433426 20.4825 1.19058L22.6405 3.34859C23.4086 4.11666 23.8311 5.13724 23.8311 6.2215V17.6042C23.8311 19.2477 22.4955 20.5833 20.8521 20.5833ZM8.39359 1.625C7.64714 1.625 7.03955 2.23279 7.03955 2.97923V17.6042C7.03955 18.3507 7.64714 18.9583 8.39359 18.9583H20.8521C21.5985 18.9583 22.2061 18.3507 22.2061 17.6042V6.2215C22.2061 5.57047 21.9526 4.95851 21.4922 4.49791L19.3342 2.33991C18.8803 1.88506 18.2531 1.625 17.6106 1.625H8.39359Z" fill="#DA774A"/>
<path d="M15.9792 26.0007H2.97923C1.33579 26.0007 0 24.6649 0 23.0215V5.68822C0 4.04477 1.33579 2.70898 2.97923 2.70898H3.52077C3.96927 2.70898 4.33327 3.07298 4.33327 3.52148C4.33327 3.96999 3.96927 4.33399 3.52077 4.33399H2.97923C2.23279 4.33399 1.625 4.94177 1.625 5.68822V23.0215C1.625 23.7679 2.23279 24.3757 2.97923 24.3757H15.9792C16.7257 24.3757 17.3333 23.7679 17.3333 23.0215V22.48C17.3333 22.0315 17.6973 21.6675 18.1458 21.6675C18.5943 21.6675 18.9583 22.0315 18.9583 22.48V23.0215C18.9583 24.6649 17.6227 26.0007 15.9792 26.0007Z" fill="#DA774A"/>
<path d="M18.6875 9.20899H10.5625C10.114 9.20899 9.75 8.84499 9.75 8.39648C9.75 7.94798 10.114 7.58398 10.5625 7.58398H18.6875C19.136 7.58398 19.5 7.94798 19.5 8.39648C19.5 8.84499 19.136 9.20899 18.6875 9.20899Z" fill="#DA774A"/>
<path d="M18.6875 12.459H10.5625C10.114 12.459 9.75 12.095 9.75 11.6465C9.75 11.198 10.114 10.834 10.5625 10.834H18.6875C19.136 10.834 19.5 11.198 19.5 11.6465C19.5 12.095 19.136 12.459 18.6875 12.459Z" fill="#DA774A"/>
<path d="M18.6875 15.709H10.5625C10.114 15.709 9.75 15.345 9.75 14.8965C9.75 14.448 10.114 14.084 10.5625 14.084H18.6875C19.136 14.084 19.5 14.448 19.5 14.8965C19.5 15.345 19.136 15.709 18.6875 15.709Z" fill="#DA774A"/>
</svg>
