<svg width="24" height="24" viewBox="0 0 24 24" fill="none" xmlns="http://www.w3.org/2000/svg">
<path d="M21.2501 22.0001H19.4401C19.0261 22.0001 18.6901 21.6641 18.6901 21.2501C18.6901 20.8361 19.0261 20.5001 19.4401 20.5001H21.2501C21.9391 20.5001 22.5001 19.9391 22.5001 19.2501V2.75001C22.5001 2.06101 21.9391 1.50001 21.2501 1.50001H2.75001C2.06101 1.50001 1.50001 2.06101 1.50001 2.75001V19.2501C1.50001 19.9391 2.06101 20.5001 2.75001 20.5001H4.56002C4.97402 20.5001 5.31002 20.8361 5.31002 21.2501C5.31002 21.6641 4.97402 22.0001 4.56002 22.0001H2.75001C1.233 22.0001 0 20.7671 0 19.2501V2.75001C0 1.233 1.233 0 2.75001 0H21.2501C22.7671 0 24.0001 1.233 24.0001 2.75001V19.2501C24.0001 20.7671 22.7671 22.0001 21.2501 22.0001Z" fill="#DA774A"/>
<path d="M23.2501 5.00001H0.750003C0.336001 5.00001 0 4.664 0 4.25C0 3.836 0.336001 3.5 0.750003 3.5H23.2501C23.6641 3.5 24.0001 3.836 24.0001 4.25C24.0001 4.664 23.6641 5.00001 23.2501 5.00001Z" fill="#DA774A"/>
<path d="M12 24.0006C11.9 24.0006 11.801 23.9806 11.707 23.9406C11.474 23.8416 6 21.4585 6 16.5545V12.5365C6 12.2155 6.204 11.9305 6.509 11.8265L11.759 10.0405C11.915 9.9865 12.085 9.9865 12.241 10.0405L17.491 11.8265C17.796 11.9295 18 12.2145 18 12.5365V16.5545C18 21.4585 12.526 23.8426 12.293 23.9416C12.199 23.9806 12.1 24.0006 12 24.0006ZM7.50001 13.0735V16.5545C7.50001 19.9025 10.955 21.8955 11.999 22.4205C13.041 21.8925 16.5 19.8895 16.5 16.5545V13.0735L12 11.5425L7.50001 13.0735Z" fill="#DA774A"/>
<path d="M11.7498 19.5002C11.5518 19.5002 11.3598 19.4212 11.2198 19.2802L9.21975 17.2801C8.92675 16.9871 8.92675 16.5121 9.21975 16.2191C9.51275 15.9261 9.98775 15.9261 10.2808 16.2191L11.6698 17.6082L14.1498 14.3001C14.3958 13.9691 14.8668 13.9011 15.1998 14.1501C15.5308 14.3991 15.5978 14.8691 15.3488 15.2001L12.3488 19.2002C12.2188 19.3742 12.0198 19.4832 11.8018 19.4982C11.7848 19.5002 11.7678 19.5002 11.7498 19.5002Z" fill="#DA774A"/>
</svg>
